HIERARCHY
ROOT hip
{
  OFFSET 0 0 0
  CHANNELS 6 Xposition Yposition Zposition Zrotation Yrotation Xrotation
  JOINT abdomen
  {
    OFFSET 0 20.6881 -0.73152
    CHANNELS 3 Zrotation Xrotation Yrotation
    JOINT chest
    {
      OFFSET 0 11.7043 -0.48768
      CHANNELS 3 Zrotation Xrotation Yrotation
      JOINT neck
      {
        OFFSET 0 22.1894 -2.19456
        CHANNELS 3 Zrotation Xrotation Yrotation
        JOINT head
        {
          OFFSET -0.24384 7.07133 1.2192
          CHANNELS 3 Zrotation Xrotation Yrotation
          JOINT leftEye
          {
            OFFSET 4.14528 8.04674 8.04672
            CHANNELS 3 Zrotation Xrotation Yrotation
            End Site
            {
              OFFSET 1 0 0
            }
          }
          JOINT rightEye
          {
            OFFSET -3.6576 8.04674 8.04672
            CHANNELS 3 Zrotation Xrotation Yrotation
            End Site
            {
              OFFSET 1 0 0
            }
          }
        }
      }
      JOINT rCollar
      {
        OFFSET -2.68224 19.2634 -4.8768
        CHANNELS 3 Zrotation Xrotation Yrotation
        JOINT rShldr
        {
          OFFSET -8.77824 -1.95073 1.46304
          CHANNELS 3 Zrotation Xrotation Yrotation
          JOINT rForeArm
          {
            OFFSET -28.1742 -1.7115 0.48768
            CHANNELS 3 Zrotation Xrotation Yrotation
            JOINT rHand
            {
              OFFSET -22.5879 0.773209 7.07136
              CHANNELS 3 Zrotation Xrotation Yrotation
              JOINT rThumb1
              {
                OFFSET -1.2192 -0.487915 3.41376
                CHANNELS 3 Zrotation Xrotation Yrotation
                JOINT rThumb2
                {
                  OFFSET -3.37035 -0.52449 3.41376
                  CHANNELS 3 Zrotation Xrotation Yrotation
                  End Site
                  {
                    OFFSET -1.78271 -1.18214 1.43049
                  }
                }
              }
              JOINT rIndex1
              {
                OFFSET -7.75947 0.938293 5.60832
                CHANNELS 3 Zrotation Xrotation Yrotation
                JOINT rIndex2
                {
                  OFFSET -2.54057 -0.884171 1.56538
                  CHANNELS 3 Zrotation Xrotation Yrotation
                  End Site
                  {
                    OFFSET -1.62519 -0.234802 1.16502
                  }
                }
              }
              JOINT rMid1
              {
                OFFSET -8.24714 1.18213 3.41376
                CHANNELS 3 Zrotation Xrotation Yrotation
                JOINT rMid2
                {
                  OFFSET -3.10165 -0.590103 1.0647
                  CHANNELS 3 Zrotation Xrotation Yrotation
                  End Site
                  {
                    OFFSET -2.48547 -0.328903 0.83742
                  }
                }
              }
              JOINT rRing1
              {
                OFFSET -8.82822 0.546677 1.51678
                CHANNELS 3 Zrotation Xrotation Yrotation
                JOINT rRing2
                {
                  OFFSET -2.60934 -0.819778 -0.0198488
                  CHANNELS 3 Zrotation Xrotation Yrotation
                  End Site
                  {
                    OFFSET -2.33842 -0.294052 0.168128
                  }
                }
              }
              JOINT rPinky1
              {
                OFFSET -8.27202 -0.0477905 -0.4584
                CHANNELS 3 Zrotation Xrotation Yrotation
                JOINT rPinky2
                {
                  OFFSET -1.82734 -0.647385 -0.700984
                  CHANNELS 3 Zrotation Xrotation Yrotation
                  End Site
                  {
                    OFFSET -1.69225 -0.51767 -0.607171
                  }
                }
              }
            }
          }
        }
      }
      JOINT lCollar
      {
        OFFSET 2.68224 19.2634 -4.8768
        CHANNELS 3 Zrotation Xrotation Yrotation
        JOINT lShldr
        {
          OFFSET 8.77824 -1.95073 1.46304
          CHANNELS 3 Zrotation Xrotation Yrotation
          JOINT lForeArm
          {
            OFFSET 28.1742 -1.7115 0.48768
            CHANNELS 3 Zrotation Xrotation Yrotation
            JOINT lHand
            {
              OFFSET 22.5879 0.773209 7.07136
              CHANNELS 3 Zrotation Xrotation Yrotation
              JOINT lThumb1
              {
                OFFSET 1.2192 -0.487915 3.41376
                CHANNELS 3 Zrotation Xrotation Yrotation
                JOINT lThumb2
                {
                  OFFSET 3.37035 -0.52449 3.41376
                  CHANNELS 3 Zrotation Xrotation Yrotation
                  End Site
                  {
                    OFFSET 1.78271 -1.18214 1.43049
                  }
                }
              }
              JOINT lIndex1
              {
                OFFSET 7.75947 0.938293 5.60832
                CHANNELS 3 Zrotation Xrotation Yrotation
                JOINT lIndex2
                {
                  OFFSET 2.54057 -0.884171 1.56538
                  CHANNELS 3 Zrotation Xrotation Yrotation
                  End Site
                  {
                    OFFSET 1.62519 -0.234802 1.16502
                  }
                }
              }
              JOINT lMid1
              {
                OFFSET 8.24714 1.18213 3.41376
                CHANNELS 3 Zrotation Xrotation Yrotation
                JOINT lMid2
                {
                  OFFSET 3.10165 -0.590103 1.0647
                  CHANNELS 3 Zrotation Xrotation Yrotation
                  End Site
                  {
                    OFFSET 2.48547 -0.328903 0.83742
                  }
                }
              }
              JOINT lRing1
              {
                OFFSET 8.82822 0.546677 1.51678
                CHANNELS 3 Zrotation Xrotation Yrotation
                JOINT lRing2
                {
                  OFFSET 2.60934 -0.819778 -0.0198488
                  CHANNELS 3 Zrotation Xrotation Yrotation
                  End Site
                  {
                    OFFSET 2.33842 -0.294052 0.168128
                  }
                }
              }
              JOINT lPinky1
              {
                OFFSET 8.27202 -0.0477905 -0.4584
                CHANNELS 3 Zrotation Xrotation Yrotation
                JOINT lPinky2
                {
                  OFFSET 1.82734 -0.647385 -0.700984
                  CHANNELS 3 Zrotation Xrotation Yrotation
                  End Site
                  {
                    OFFSET 1.69225 -0.51767 -0.607171
                  }
                }
              }
            }
          }
        }
      }
    }
  }
  JOINT rButtock
  {
    OFFSET -8.77824 4.35084 1.2192
    CHANNELS 3 Zrotation Xrotation Yrotation
    JOINT rThigh
    {
      OFFSET 0 -1.70687 -2.19456
      CHANNELS 3 Zrotation Xrotation Yrotation
      JOINT rShin
      {
        OFFSET 0 -36.8199 0.73152
        CHANNELS 3 Zrotation Xrotation Yrotation
        JOINT rFoot
        {
          OFFSET 0.73152 -45.1104 -5.12064
          CHANNELS 3 Zrotation Xrotation Yrotation
          End Site
          {
            OFFSET -1.1221 -3.69964 12.103
          }
        }
      }
    }
  }
  JOINT lButtock
  {
    OFFSET 8.77824 4.35084 1.2192
    CHANNELS 3 Zrotation Xrotation Yrotation
    JOINT lThigh
    {
      OFFSET 0 -1.70687 -2.19456
      CHANNELS 3 Zrotation Xrotation Yrotation
      JOINT lShin
      {
        OFFSET 0 -36.8199 0.73152
        CHANNELS 3 Zrotation Xrotation Yrotation
        JOINT lFoot
        {
          OFFSET -0.73152 -45.1104 -5.12064
          CHANNELS 3 Zrotation Xrotation Yrotation
          End Site
          {
            OFFSET 1.1221 -3.69964 12.103
          }
        }
      }
    }
  }
}
MOTION
Frames:	4
Frame Time:	0.03333
0.9184584021568298 65.67259216308594 12.052708633244038 3.1166866421699524 -27.816808819770813 23.857994377613068 -4.823679998517036 19.10017266869545 11.452697217464447 -5.194608047604561 -13.36200624704361 1.4058092795312405 2.7310694754123688 10.567868649959564 1.7814286798238754 -2.5893764197826385 -21.440792977809906 3.720848858356476 0.031360723078250885 1.597692333161831 -5.140905864536762 12.086071372032166 3.0780450627207756 2.9100365191698074 -6.479946747422218 -0.3064524382352829 -4.72949892282486 36.779488027095795 36.73404335975647 33.147618770599365 -24.554824233055115 -29.449517726898193 71.2435108423233 8.502781614661217 -11.06963686645031 4.5593539997935295 10.52856020629406 -7.087799683213234 -1.8437021970748901 14.880436956882477 -1.1392676085233688 7.168920412659645 4.689894765615463 -5.076403096318245 6.452043727040291 -0.23912496864795685 -0.9264162182807922 4.1852545738220215 -1.782948486506939 -2.737405188381672 5.725052431225777 3.4200025722384453 -8.216040059924126 -2.2282526828348637 9.335491508245468 3.9432355016469955 1.8862346559762955 5.144076570868492 0.2707311138510704 7.694554924964905 -1.1542457342147827 6.365437209606171 -2.0859861373901367 4.045518860220909 0.022472217679023743 2.0303336530923843 1.6578641720116138 -4.6503885090351105 -1.449734978377819 -56.98442101478577 21.127143502235413 -38.86964499950409 36.64141058921814 -20.317760109901428 -46.38534486293793 -11.14839993417263 -11.145419999957085 -3.364613950252533 1.6890986636281013 5.6537459045648575 0.6223256327211857 2.021963484585285 -4.3205200508236885 -3.8985931500792503 2.906699851155281 -0.8685334771871567 9.161075502634048 -8.60381305217743 15.389064252376556 0.5786155164241791 10.548071265220642 -10.473188012838364 1.9415444880723953 10.870482176542282 6.187573224306107 -0.8234106749296188 -4.8037488386034966 -5.59638150036335 -3.5119295865297318 -7.689826190471649 0.6594207510352135 7.98346035182476 -1.9698796793818474 0.3252560645341873 -8.74443992972374 -6.870637983083725 5.174500867724419 -6.588126942515373 8.749540150165558 -5.592698827385902 -2.9989202320575714 -25.664609670639038 -43.08591663837433 -18.408766239881516 -14.468193501234055 51.08515977859497 14.610386788845062 1.7392100393772125 -16.05918601155281 -9.27140012383461 -10.604343339800835 1.9594153761863708 -3.1836308911442757 28.237910270690918 -30.14850676059723 17.173902690410614 13.595245778560638 57.67642557621002 -10.986600369215012 -6.470223069190979 -3.3171388506889343 3.97951640188694
0.9363762084394693 65.67223358154297 12.294858686625957 3.115493059158325 -27.81590759754181 23.855322897434235 -4.824506118893623 19.102533012628555 11.452772319316864 -5.1963890343904495 -13.360708057880402 1.4054310880601406 2.731533497571945 10.57046502828598 1.7806240171194077 -2.590288370847702 -21.441340148448944 3.7210527062416077 0.031516291201114655 1.5977030619978905 -5.14296043664217 12.086779475212097 3.077884130179882 2.9108089953660965 -6.480888202786446 -0.30502818524837494 -4.7293272614479065 36.77805840969086 36.73348009586334 33.14703404903412 -24.554142951965332 -29.4506174325943 71.24293684959412 8.500394448637962 -11.070275232195854 4.5589784905314445 10.528023764491081 -7.088266387581825 -1.8424952030181885 14.879136085510254 -1.1401259154081345 7.169263735413551 4.6892403066158295 -5.0753141194581985 6.4536745101213455 -0.2395380288362503 -0.9268936514854431 4.185372591018677 -1.7815108224749565 -2.738081105053425 5.726452544331551 3.41788362711668 -8.217332884669304 -2.2270617820322514 9.335974305868149 3.9406927675008774 1.8861917406320572 5.142097100615501 0.2682742103934288 7.6957109570503235 -1.1538702249526978 6.365938782691956 -2.084076404571533 4.046027138829231 0.02337343990802765 2.03181155025959 1.65671082213521 -4.651922732591629 -1.4498583599925041 -56.98424935340881 21.125598549842834 -38.870009779930115 36.64168417453766 -20.31692862510681 -46.38219594955444 -11.150835379958153 -11.145108863711357 -3.3674705028533936 1.6881706193089485 5.654604211449623 0.6245009042322636 2.022070772945881 -4.321831651031971 -3.897927962243557 2.9061365872621536 -0.8701696246862411 9.160898476839066 -8.60341876745224 15.391403138637543 0.5779288709163666 10.547438263893127 -10.472496002912521 1.9418234378099442 10.87105616927147 6.188410073518753 -0.824405774474144 -4.804371111094952 -5.594815090298653 -3.511350229382515 -7.690201699733734 0.6609469279646873 7.986067458987236 -1.9712046906352043 0.3252185136079788 -8.743066638708115 -6.872794479131699 5.176196023821831 -6.590122506022453 8.752168715000153 -5.592838302254677 -2.9971231520175934 -25.667130947113037 -43.08587908744812 -18.41038092970848 -14.469695538282394 51.08494520187378 14.611387252807617 1.7391510307788849 -16.06245830655098 -9.27314892411232 -10.605781003832817 1.959163248538971 -3.1839312985539436 28.23810338973999 -30.148399472236633 17.17477172613144 13.597801923751831 57.67789006233215 -10.989419370889664 -6.4709848165512085 -3.3181044459342957 3.9786044508218765
0.9542939998209476 65.6722412109375 12.537009067833424 3.115450143814087 -27.815929055213928 23.85541945695877 -4.824484661221504 19.10244718194008 11.452772319316864 -5.196303203701973 -13.36075097322464 1.4054257236421108 2.7315308153629303 10.570379197597504 1.7806347459554672 -2.590261548757553 -21.441345512866974 3.7210312485694885 0.031537748873233795 1.5977245196700096 -5.1428960636258125 12.086736559867859 3.0778787657618523 2.910766080021858 -6.480847969651222 -0.30505500733852386 -4.729370176792145 36.778117418289185 36.73350691795349 33.14703404903412 -24.554172456264496 -29.45061206817627 71.24297440052032 8.500415906310081 -11.070285961031914 4.558924846351147 10.528023764491081 -7.088277116417885 -1.8425112962722778 14.879176318645477 -1.1401044577360153 7.169220820069313 4.689261764287949 -5.075319483876228 6.453610137104988 -0.23951120674610138 -0.9268936514854431 4.185351133346558 -1.7815322801470757 -2.7380703762173653 5.726425722241402 3.4179265424609184 -8.217295333743095 -2.227067146450281 9.33594211935997 3.940751776099205 1.8861917406320572 5.14213465154171 0.26836004108190536 7.6956868171691895 -1.153891682624817 6.365954875946045 -2.0841139554977417 4.04605932533741 0.023330524563789368 2.031765952706337 1.6567537374794483 -4.65190127491951 -1.4498422667384148 -56.98426008224487 21.125609278678894 -38.87004196643829 36.64166808128357 -20.31698763370514 -46.3822603225708 -11.150781735777855 -11.145173236727715 -3.3673739433288574 1.6881920769810677 5.654614940285683 0.6244418956339359 2.022070772945881 -4.3218182399868965 -3.8979386910796165 2.9061419516801834 -0.8701267093420029 9.160871654748917 -8.603445589542389 15.391328036785126 0.5779610574245453 10.547416806221008 -10.472490638494492 1.9417697936296463 10.871082991361618 6.188367158174515 -0.8243789523839951 -4.804376475512981 -5.594852641224861 -3.5113609582185745 -7.690190970897675 0.6609281525015831 7.9860057681798935 -1.9711295887827873 0.3252614289522171 -8.743106871843338 -6.872708648443222 5.176163837313652 -6.590095683932304 8.752104341983795 -5.592827573418617 -2.9971714317798615 -25.6670880317688 -43.08590054512024 -18.410321921110153 -14.469588249921799 51.0849666595459 14.611379206180573 1.7391027510166168 -16.062367111444473 -9.273095279932022 -10.605738088488579 1.9591578841209412 -3.183974213898182 28.23811411857605 -30.148399472236633 17.17473953962326 13.597726821899414 57.677873969078064 -10.989317446947098 -6.470931172370911 -3.3180400729179382 3.9786366373300552
0.9722119104117155 65.67228698730469 12.779160551726818 3.115624487400055 -27.816047072410583 23.855752050876617 -4.824382737278938 19.10216823220253 11.452745497226715 -5.196067169308662 -13.360895812511444 1.4054659567773342 2.7314986288547516 10.570057332515717 1.7807313054800034 -2.590164989233017 -21.441254317760468 3.72099906206131 0.03150288015604019 1.5977298840880394 -5.142633207142353 12.086650729179382 3.0778921768069267 2.9106587916612625 -6.480727270245552 -0.3052293509244919 -4.729348719120026 36.77830785512924 36.73359274864197 33.147109150886536 -24.554242193698883 -29.450504779815674 71.24307632446289 8.50070558488369 -11.070213541388512 4.558946304023266 10.528098866343498 -7.088220790028572 -1.8426454067230225 14.87934798002243 -1.1400186270475388 7.169145718216896 4.689358323812485 -5.075448229908943 6.453395560383797 -0.23945756256580353 -0.9268239140510559 4.185383319854736 -1.7817039415240288 -2.7380167320370674 5.726270154118538 3.418184034526348 -8.217123672366142 -2.227190528064966 9.335856288671494 3.941073641180992 1.8862024694681168 5.14238141477108 0.2686711773276329 7.695541977882385 -1.1539345979690552 6.365933418273926 -2.0843392610549927 4.045969471335411 0.023201778531074524 2.0315567404031754 1.6568985767662525 -4.651729613542557 -1.449836902320385 -56.98428690433502 21.125791668891907 -38.870009779930115 36.64163589477539 -20.317084193229675 -46.38269484043121 -11.150459870696068 -11.145248338580132 -3.3670011162757874 1.6883047297596931 5.654561296105385 0.6241736747324467 2.0220600441098213 -4.321638531982899 -3.898024521768093 2.9061902314424515 -0.8699174970388412 9.160898476839066 -8.603526055812836 15.391006171703339 0.5780361592769623 10.547481179237366 -10.472555011510849 1.941726878285408 10.87101325392723 6.188281327486038 -0.8242502063512802 -4.804269187152386 -5.595059171319008 -3.511403873562813 -7.690137326717377 0.6607216224074364 7.985670492053032 -1.9709713384509087 0.3252614289522171 -8.743278533220291 -6.872451156377792 5.175938531756401 -6.589832827448845 8.75175029039383 -5.592827573418617 -2.9973699152469635 -25.66678762435913 -43.08590590953827 -18.41011270880699 -14.469352215528488 51.08498811721802 14.611245095729828 1.7390866577625275 -16.061913818120956 -9.272869974374771 -10.605544969439507 1.9591793417930603 -3.1839312985539436 28.23812484741211 -30.148426294326782 17.174626886844635 13.597418367862701 57.67770230770111 -10.988960713148117 -6.470818519592285 -3.317922055721283 3.978722468018532
